<svg viewBox="0 0 164 68" fill="none" xmlns="http://www.w3.org/2000/svg">
<path d="M4.42614 54.794V53.2727H11.5938V54.794H8.92188V62H7.09801V54.794H4.42614ZM13.9741 62V53.2727H15.8193V56.8736H19.5651V53.2727H21.406V62H19.5651V58.3949H15.8193V62H13.9741ZM24.1273 62V53.2727H30.008V54.794H25.9724V56.8736H29.7054V58.3949H25.9724V60.4787H30.025V62H24.1273ZM36.6523 62V53.2727H38.4974V56.8736H42.2432V53.2727H44.0841V62H42.2432V58.3949H38.4974V62H36.6523ZM48.6506 53.2727V62H46.8054V53.2727H48.6506ZM51.3687 62V53.2727H54.8119C55.471 53.2727 56.0335 53.3906 56.4994 53.6264C56.9681 53.8594 57.3246 54.1903 57.569 54.6193C57.8161 55.0455 57.9397 55.5469 57.9397 56.1236C57.9397 56.7031 57.8147 57.2017 57.5647 57.6193C57.3147 58.0341 56.9525 58.3523 56.4781 58.5739C56.0065 58.7955 55.4354 58.9062 54.765 58.9062H52.4596V57.4233H54.4667C54.819 57.4233 55.1116 57.375 55.3445 57.2784C55.5775 57.1818 55.7508 57.0369 55.8644 56.8438C55.9809 56.6506 56.0391 56.4105 56.0391 56.1236C56.0391 55.8338 55.9809 55.5895 55.8644 55.3906C55.7508 55.1918 55.5761 55.0412 55.3403 54.9389C55.1073 54.8338 54.8133 54.7812 54.4582 54.7812H53.2139V62H51.3687ZM56.0817 58.0284L58.2508 62H56.2139L54.0917 58.0284H56.0817ZM60.4437 62V53.2727H66.3244V54.794H62.2889V56.8736H66.0218V58.3949H62.2889V60.4787H66.3414V62H60.4437ZM72.9687 53.2727H75.2443L77.6477 59.1364H77.7499L80.1533 53.2727H82.4289V62H80.6391V56.3196H80.5667L78.3082 61.9574H77.0894L74.8309 56.2983H74.7585V62H72.9687V53.2727ZM85.1491 62V53.2727H91.0298V54.794H86.9943V56.8736H90.7273V58.3949H86.9943V60.4787H91.0469V62H85.1491ZM97.6741 62V53.2727H101.117C101.779 53.2727 102.343 53.3991 102.809 53.652C103.275 53.902 103.63 54.25 103.874 54.696C104.122 55.1392 104.245 55.6506 104.245 56.2301C104.245 56.8097 104.12 57.321 103.87 57.7642C103.62 58.2074 103.258 58.5526 102.784 58.7997C102.312 59.0469 101.741 59.1705 101.07 59.1705H98.8759V57.6918H100.772C101.127 57.6918 101.42 57.6307 101.65 57.5085C101.883 57.3835 102.056 57.2116 102.17 56.9929C102.286 56.7713 102.345 56.517 102.345 56.2301C102.345 55.9403 102.286 55.6875 102.17 55.4716C102.056 55.2528 101.883 55.0838 101.65 54.9645C101.417 54.8423 101.122 54.7812 100.764 54.7812H99.5193V62H97.6741ZM106.644 62V53.2727H110.087C110.746 53.2727 111.308 53.3906 111.774 53.6264C112.243 53.8594 112.6 54.1903 112.844 54.6193C113.091 55.0455 113.215 55.5469 113.215 56.1236C113.215 56.7031 113.09 57.2017 112.84 57.6193C112.59 58.0341 112.227 58.3523 111.753 58.5739C111.281 58.7955 110.71 58.9062 110.04 58.9062H107.735V57.4233H109.742C110.094 57.4233 110.387 57.375 110.62 57.2784C110.852 57.1818 111.026 57.0369 111.139 56.8438C111.256 56.6506 111.314 56.4105 111.314 56.1236C111.314 55.8338 111.256 55.5895 111.139 55.3906C111.026 55.1918 110.851 55.0412 110.615 54.9389C110.382 54.8338 110.088 54.7812 109.733 54.7812H108.489V62H106.644ZM111.357 58.0284L113.526 62H111.489L109.367 58.0284H111.357ZM123.739 57.6364C123.739 58.5881 123.558 59.3977 123.197 60.0653C122.839 60.733 122.351 61.2429 121.731 61.5952C121.115 61.9446 120.422 62.1193 119.652 62.1193C118.876 62.1193 118.18 61.9432 117.564 61.5909C116.947 61.2386 116.46 60.7287 116.102 60.0611C115.744 59.3935 115.565 58.5852 115.565 57.6364C115.565 56.6847 115.744 55.875 116.102 55.2074C116.46 54.5398 116.947 54.0312 117.564 53.6818C118.18 53.3295 118.876 53.1534 119.652 53.1534C120.422 53.1534 121.115 53.3295 121.731 53.6818C122.351 54.0312 122.839 54.5398 123.197 55.2074C123.558 55.875 123.739 56.6847 123.739 57.6364ZM121.868 57.6364C121.868 57.0199 121.776 56.5 121.591 56.0767C121.409 55.6534 121.152 55.3324 120.82 55.1136C120.487 54.8949 120.098 54.7855 119.652 54.7855C119.206 54.7855 118.817 54.8949 118.484 55.1136C118.152 55.3324 117.893 55.6534 117.709 56.0767C117.527 56.5 117.436 57.0199 117.436 57.6364C117.436 58.2528 117.527 58.7727 117.709 59.196C117.893 59.6193 118.152 59.9403 118.484 60.1591C118.817 60.3778 119.206 60.4872 119.652 60.4872C120.098 60.4872 120.487 60.3778 120.82 60.1591C121.152 59.9403 121.409 59.6193 121.591 59.196C121.776 58.7727 121.868 58.2528 121.868 57.6364ZM129.8 53.2727H131.624V59.358C131.624 59.9205 131.497 60.4091 131.244 60.8239C130.994 61.2386 130.646 61.5582 130.2 61.7827C129.754 62.0071 129.236 62.1193 128.645 62.1193C128.119 62.1193 127.642 62.027 127.213 61.8423C126.787 61.6548 126.449 61.3707 126.199 60.9901C125.949 60.6065 125.825 60.125 125.828 59.5455H127.665C127.67 59.7756 127.717 59.973 127.805 60.1378C127.896 60.2997 128.02 60.4247 128.176 60.5128C128.335 60.598 128.523 60.6406 128.739 60.6406C128.966 60.6406 129.158 60.5923 129.314 60.4957C129.473 60.3963 129.594 60.2514 129.676 60.0611C129.759 59.8707 129.8 59.6364 129.8 59.358V53.2727ZM134.349 62V53.2727H140.23V54.794H136.194V56.8736H139.927V58.3949H136.194V60.4787H140.247V62H134.349ZM150.597 56.3281H148.731C148.697 56.0866 148.627 55.8722 148.522 55.6847C148.417 55.4943 148.282 55.3324 148.117 55.1989C147.952 55.0653 147.762 54.9631 147.546 54.892C147.333 54.821 147.101 54.7855 146.851 54.7855C146.4 54.7855 146.006 54.8977 145.671 55.1222C145.336 55.3437 145.076 55.6676 144.891 56.0938C144.706 56.517 144.614 57.0312 144.614 57.6364C144.614 58.2585 144.706 58.7812 144.891 59.2045C145.079 59.6278 145.34 59.9474 145.675 60.1634C146.01 60.3793 146.398 60.4872 146.839 60.4872C147.086 60.4872 147.314 60.4545 147.525 60.3892C147.738 60.3239 147.927 60.2287 148.091 60.1037C148.256 59.9759 148.393 59.821 148.5 59.6392C148.611 59.4574 148.688 59.25 148.731 59.017L150.597 59.0256C150.549 59.4261 150.428 59.8125 150.235 60.1847C150.045 60.554 149.787 60.8849 149.464 61.1776C149.143 61.4673 148.759 61.6974 148.313 61.8679C147.87 62.0355 147.368 62.1193 146.809 62.1193C146.03 62.1193 145.334 61.9432 144.721 61.5909C144.11 61.2386 143.627 60.7287 143.272 60.0611C142.92 59.3935 142.743 58.5852 142.743 57.6364C142.743 56.6847 142.922 55.875 143.28 55.2074C143.638 54.5398 144.124 54.0312 144.738 53.6818C145.351 53.3295 146.042 53.1534 146.809 53.1534C147.314 53.1534 147.783 53.2244 148.215 53.3665C148.65 53.5085 149.035 53.7159 149.37 53.9886C149.705 54.2585 149.978 54.5895 150.188 54.9815C150.401 55.3736 150.537 55.8224 150.597 56.3281ZM152.788 54.794V53.2727H159.955V54.794H157.284V62H155.46V54.794H152.788Z" fill="#1E3B5C"/>
<path d="M1.91761 11.5732V4.72727H34.1719V11.5732H22.1484V44H13.9411V11.5732H1.91761ZM40.2937 44V4.72727H48.5969V20.9311H65.4528V4.72727H73.7368V44H65.4528V27.777H48.5969V44H40.2937ZM81.3927 4.72727H91.6328L102.448 31.1136H102.908L113.724 4.72727H123.964V44H115.91V18.4382H115.584L105.42 43.8082H99.9361L89.7727 18.3423H89.4467V44H81.3927V4.72727ZM131.615 44V4.72727H147.109C150.088 4.72727 152.625 5.29616 154.722 6.43395C156.819 7.55895 158.417 9.125 159.516 11.1321C160.628 13.1264 161.184 15.4276 161.184 18.0355C161.184 20.6435 160.622 22.9446 159.497 24.9389C158.372 26.9332 156.742 28.4865 154.607 29.5987C152.485 30.7109 149.915 31.267 146.898 31.267H137.023V24.6129H145.556C147.154 24.6129 148.471 24.3381 149.506 23.7884C150.554 23.2259 151.334 22.4524 151.846 21.468C152.37 20.4709 152.632 19.3267 152.632 18.0355C152.632 16.7315 152.37 15.5937 151.846 14.6222C151.334 13.6378 150.554 12.8771 149.506 12.3402C148.458 11.7905 147.128 11.5156 145.518 11.5156H139.918V44H131.615Z" fill="#1E3B5C"/>
</svg>
