<svg viewBox="0 0 226 93" fill="none" xmlns="http://www.w3.org/2000/svg">
<path d="M89.7045 24.1761V18.0909H118.375V24.1761H107.688V53H100.392V24.1761H89.7045ZM121.417 53V18.0909H128.797V32.4943H143.78V18.0909H151.144V53H143.78V38.5795H128.797V53H121.417ZM155.549 18.0909H164.651L174.265 41.5455H174.674L184.288 18.0909H193.39V53H186.231V30.2784H185.941L176.907 52.8295H172.032L162.998 30.1932H162.708V53H155.549V18.0909ZM197.791 53V18.0909H211.564C214.211 18.0909 216.467 18.5966 218.331 19.608C220.194 20.608 221.615 22 222.592 23.7841C223.581 25.5568 224.075 27.6023 224.075 29.9205C224.075 32.2386 223.575 34.2841 222.575 36.0568C221.575 37.8295 220.126 39.2102 218.228 40.1989C216.342 41.1875 214.058 41.6818 211.376 41.6818H202.598V35.767H210.183C211.603 35.767 212.774 35.5227 213.694 35.0341C214.626 34.5341 215.319 33.8466 215.774 32.9716C216.24 32.0852 216.473 31.0682 216.473 29.9205C216.473 28.7614 216.24 27.75 215.774 26.8864C215.319 26.0114 214.626 25.3352 213.694 24.858C212.763 24.3693 211.581 24.125 210.149 24.125H205.172V53H197.791Z" fill="#1E3B5C"/>
<path d="M88.3551 67.995V66.7273H94.3281V67.995H92.1016V74H90.5817V67.995H88.3551ZM96.7118 74V66.7273H98.2494V69.728H101.371V66.7273H102.905V74H101.371V70.9957H98.2494V74H96.7118ZM105.573 74V66.7273H110.473V67.995H107.11V69.728H110.221V70.9957H107.11V72.7322H110.487V74H105.573ZM116.81 74V66.7273H118.348V69.728H121.469V66.7273H123.003V74H121.469V70.9957H118.348V74H116.81ZM127.209 66.7273V74H125.671V66.7273H127.209ZM129.874 74V66.7273H132.743C133.292 66.7273 133.761 66.8255 134.149 67.022C134.54 67.2161 134.837 67.492 135.041 67.8494C135.247 68.2045 135.35 68.6224 135.35 69.103C135.35 69.5859 135.246 70.0014 135.037 70.3494C134.829 70.6951 134.527 70.9602 134.132 71.1449C133.739 71.3295 133.263 71.4219 132.704 71.4219H130.783V70.1861H132.456C132.749 70.1861 132.993 70.1458 133.187 70.0653C133.381 69.9848 133.526 69.8641 133.62 69.7031C133.717 69.5421 133.766 69.3421 133.766 69.103C133.766 68.8615 133.717 68.6579 133.62 68.4922C133.526 68.3265 133.38 68.201 133.184 68.1158C132.989 68.0282 132.744 67.9844 132.448 67.9844H131.412V74H129.874ZM133.801 70.6903L135.609 74H133.912L132.143 70.6903H133.801ZM137.836 74V66.7273H142.737V67.995H139.374V69.728H142.485V70.9957H139.374V72.7322H142.751V74H137.836ZM149.074 66.7273H150.97L152.973 71.6136H153.058L155.061 66.7273H156.957V74H155.466V69.2663H155.406L153.523 73.9645H152.508L150.626 69.2486H150.565V74H149.074V66.7273ZM159.624 74V66.7273H164.525V67.995H161.162V69.728H164.273V70.9957H161.162V72.7322H164.539V74H159.624ZM170.862 74V66.7273H173.731C174.283 66.7273 174.753 66.8326 175.141 67.0433C175.529 67.2517 175.825 67.5417 176.029 67.9134C176.235 68.2827 176.338 68.7088 176.338 69.1918C176.338 69.6747 176.233 70.1009 176.025 70.4702C175.817 70.8395 175.515 71.1271 175.12 71.3331C174.727 71.5391 174.251 71.642 173.692 71.642H171.863V70.4098H173.443C173.739 70.4098 173.983 70.3589 174.175 70.2571C174.369 70.1529 174.514 70.0097 174.608 69.8274C174.705 69.6428 174.754 69.4309 174.754 69.1918C174.754 68.9503 174.705 68.7396 174.608 68.5597C174.514 68.3774 174.369 68.2365 174.175 68.1371C173.981 68.0353 173.735 67.9844 173.436 67.9844H172.399V74H170.862ZM178.736 74V66.7273H181.606C182.155 66.7273 182.624 66.8255 183.012 67.022C183.403 67.2161 183.7 67.492 183.903 67.8494C184.109 68.2045 184.212 68.6224 184.212 69.103C184.212 69.5859 184.108 70.0014 183.9 70.3494C183.691 70.6951 183.39 70.9602 182.994 71.1449C182.601 71.3295 182.125 71.4219 181.567 71.4219H179.645V70.1861H181.318C181.612 70.1861 181.855 70.1458 182.05 70.0653C182.244 69.9848 182.388 69.8641 182.483 69.7031C182.58 69.5421 182.628 69.3421 182.628 69.103C182.628 68.8615 182.58 68.6579 182.483 68.4922C182.388 68.3265 182.243 68.201 182.046 68.1158C181.852 68.0282 181.607 67.9844 181.311 67.9844H180.274V74H178.736ZM182.664 70.6903L184.471 74H182.774L181.006 70.6903H182.664ZM193.382 70.3636C193.382 71.1567 193.232 71.8314 192.931 72.3878C192.633 72.9441 192.226 73.3691 191.71 73.6626C191.196 73.9538 190.618 74.0994 189.977 74.0994C189.33 74.0994 188.75 73.9527 188.237 73.6591C187.723 73.3655 187.317 72.9406 187.018 72.3842C186.72 71.8279 186.571 71.1544 186.571 70.3636C186.571 69.5705 186.72 68.8958 187.018 68.3395C187.317 67.7831 187.723 67.3594 188.237 67.0682C188.75 66.7746 189.33 66.6278 189.977 66.6278C190.618 66.6278 191.196 66.7746 191.71 67.0682C192.226 67.3594 192.633 67.7831 192.931 68.3395C193.232 68.8958 193.382 69.5705 193.382 70.3636ZM191.823 70.3636C191.823 69.8499 191.746 69.4167 191.592 69.0639C191.441 68.7112 191.227 68.4437 190.95 68.2614C190.673 68.0791 190.348 67.9879 189.977 67.9879C189.605 67.9879 189.281 68.0791 189.004 68.2614C188.727 68.4437 188.511 68.7112 188.357 69.0639C188.206 69.4167 188.13 69.8499 188.13 70.3636C188.13 70.8774 188.206 71.3106 188.357 71.6634C188.511 72.0161 188.727 72.2836 189.004 72.4659C189.281 72.6482 189.605 72.7393 189.977 72.7393C190.348 72.7393 190.673 72.6482 190.95 72.4659C191.227 72.2836 191.441 72.0161 191.592 71.6634C191.746 71.3106 191.823 70.8774 191.823 70.3636ZM198.833 66.7273H200.353V71.7983C200.353 72.267 200.248 72.6742 200.037 73.0199C199.829 73.3655 199.539 73.6319 199.167 73.8189C198.795 74.0059 198.363 74.0994 197.871 74.0994C197.433 74.0994 197.035 74.0225 196.678 73.8686C196.322 73.7124 196.041 73.4756 195.832 73.1584C195.624 72.8388 195.521 72.4375 195.523 71.9545H197.054C197.059 72.1463 197.098 72.3108 197.171 72.4482C197.247 72.5831 197.35 72.6873 197.48 72.7607C197.613 72.8317 197.769 72.8672 197.949 72.8672C198.138 72.8672 198.298 72.8269 198.428 72.7464C198.561 72.6636 198.661 72.5429 198.73 72.3842C198.799 72.2256 198.833 72.0303 198.833 71.7983V66.7273ZM203.024 74V66.7273H207.925V67.995H204.562V69.728H207.673V70.9957H204.562V72.7322H207.939V74H203.024ZM216.964 69.2734H215.409C215.38 69.0722 215.322 68.8935 215.235 68.7372C215.147 68.5786 215.035 68.4437 214.897 68.3324C214.76 68.2211 214.602 68.1359 214.422 68.0767C214.244 68.0175 214.051 67.9879 213.843 67.9879C213.466 67.9879 213.138 68.0814 212.859 68.2685C212.58 68.4531 212.363 68.723 212.209 69.0781C212.055 69.4309 211.978 69.8594 211.978 70.3636C211.978 70.8821 212.055 71.3177 212.209 71.6705C212.366 72.0232 212.583 72.2895 212.863 72.4695C213.142 72.6494 213.465 72.7393 213.832 72.7393C214.038 72.7393 214.229 72.7121 214.404 72.6577C214.581 72.6032 214.739 72.5239 214.876 72.4197C215.013 72.3132 215.127 72.1842 215.217 72.0327C215.309 71.8812 215.373 71.7083 215.409 71.5142L216.964 71.5213C216.924 71.8551 216.823 72.1771 216.662 72.4872C216.504 72.795 216.29 73.0708 216.02 73.3146C215.752 73.5561 215.433 73.7479 215.061 73.8899C214.692 74.0296 214.274 74.0994 213.807 74.0994C213.159 74.0994 212.579 73.9527 212.067 73.6591C211.558 73.3655 211.156 72.9406 210.86 72.3842C210.566 71.8279 210.419 71.1544 210.419 70.3636C210.419 69.5705 210.569 68.8958 210.867 68.3395C211.165 67.7831 211.57 67.3594 212.081 67.0682C212.593 66.7746 213.168 66.6278 213.807 66.6278C214.229 66.6278 214.619 66.687 214.979 66.8054C215.341 66.9238 215.662 67.0966 215.942 67.3239C216.221 67.5488 216.448 67.8246 216.623 68.1513C216.801 68.478 216.915 68.852 216.964 69.2734ZM219.19 67.995V66.7273H225.163V67.995H222.936V74H221.416V67.995H219.19Z" fill="#1E3B5C"/>
<path d="M59.957 0L74.8213 15.748L74.957 15.8916V65H75V78L74.9961 78.3096C74.8345 84.691 69.691 89.8345 63.3096 89.9961L63 90H12L11.6904 89.9961C5.30907 89.8344 0.1655 84.691 0.00390625 78.3096L0 78V12C0 5.47617 5.2062 0.168233 11.6904 0.00390625L12 0H59.957ZM12 4C7.58183 4.00013 4 7.5818 4 12V78C4 82.4182 7.58184 85.9999 12 86H63C67.4183 86 71 82.4183 71 78V16H67.957C63.5388 16 59.957 12.4183 59.957 8V4H12ZM61.957 80H11.957V76H61.957V80ZM61.957 71H11.957V67H61.957V71ZM65 56.4004C64.9998 58.3874 63.1745 60 60.9258 60H14.0742C11.8234 60 10.0002 58.3874 10 56.4004V34.7998C10 34.7998 20.6352 39.6331 30.3701 41.6113V43.7998C30.3701 44.7952 31.2808 45.5995 32.4072 45.5996H42.5928C43.7171 45.5995 44.6299 44.7952 44.6299 43.7998V41.6113C54.3628 39.6331 65 34.7998 65 34.7998V56.4004ZM40.5557 38.4004C41.6801 38.4004 42.5928 39.2048 42.5928 40.2002V42C42.5928 42.9954 41.6801 43.7998 40.5557 43.7998H34.4443C33.3179 43.7998 32.4072 42.9954 32.4072 42V40.2002C32.4072 39.2048 33.3179 38.4004 34.4443 38.4004H40.5557ZM44.6299 15C46.8785 15.0001 48.7039 16.6127 48.7041 18.5996V22.2002H60.9258C63.1746 22.2002 64.9999 23.8127 65 25.7998V33C65 33 54.3628 37.9751 44.6299 40.0127V38.4004C44.6299 37.405 43.7171 36.5997 42.5928 36.5996H32.4072C31.2808 36.5997 30.3701 37.405 30.3701 38.4004V40.0127C20.6352 37.9751 10 33 10 33V25.7998C10.0001 23.8127 11.8234 22.2002 14.0742 22.2002H26.2959V18.5996C26.2961 16.6127 28.1215 15.0001 30.3701 15H44.6299ZM32.4072 18.5996C31.2808 18.5997 30.3701 19.405 30.3701 20.4004V22.2002H44.6299C44.6299 22.2002 44.6299 21.3938 44.6299 20.4004C44.6299 19.405 43.7171 18.5997 42.5928 18.5996H32.4072Z" fill="#1E3B5C"/>
<path d="M81 72C81 83.598 71.598 93 60 93C48.402 93 39 83.598 39 72C39 60.402 48.402 51 60 51C71.598 51 81 60.402 81 72Z" fill="#f0f0f0"/>
<path d="M60 54C50.0595 54 42 62.0595 42 72C42 81.9405 50.0595 90 60 90C69.9405 90 78 81.9405 78 72C78 62.0595 69.9405 54 60 54ZM70.0605 68.5605L58.7205 79.9005C58.4385 80.1825 58.0575 80.34 57.66 80.34C57.2625 80.34 56.88 80.1825 56.5995 79.9005L51.42 74.721C50.8335 74.1345 50.8335 73.1865 51.42 72.6C52.0065 72.0135 52.9545 72.0135 53.541 72.6L57.66 76.719L67.9395 66.4395C68.526 65.853 69.474 65.853 70.0605 66.4395C70.647 67.026 70.647 67.974 70.0605 68.5605Z" fill="#1E3B5C"/>
</svg>
