<svg viewBox="0 0 252 93" fill="none" xmlns="http://www.w3.org/2000/svg">
<path d="M92.4261 66.794V65.2727H99.5938V66.794H96.9219V74H95.098V66.794H92.4261ZM101.974 74V65.2727H103.819V68.8736H107.565V65.2727H109.406V74H107.565V70.3949H103.819V74H101.974ZM112.127 74V65.2727H118.008V66.794H113.972V68.8736H117.705V70.3949H113.972V72.4787H118.025V74H112.127ZM124.652 74V65.2727H126.497V68.8736H130.243V65.2727H132.084V74H130.243V70.3949H126.497V74H124.652ZM136.651 65.2727V74H134.805V65.2727H136.651ZM139.369 74V65.2727H142.812C143.471 65.2727 144.033 65.3906 144.499 65.6264C144.968 65.8594 145.325 66.1903 145.569 66.6193C145.816 67.0455 145.94 67.5469 145.94 68.1236C145.94 68.7031 145.815 69.2017 145.565 69.6193C145.315 70.0341 144.952 70.3523 144.478 70.5739C144.006 70.7955 143.435 70.9062 142.765 70.9062H140.46V69.4233H142.467C142.819 69.4233 143.112 69.375 143.345 69.2784C143.577 69.1818 143.751 69.0369 143.864 68.8438C143.981 68.6506 144.039 68.4105 144.039 68.1236C144.039 67.8338 143.981 67.5895 143.864 67.3906C143.751 67.1918 143.576 67.0412 143.34 66.9389C143.107 66.8338 142.813 66.7812 142.458 66.7812H141.214V74H139.369ZM144.082 70.0284L146.251 74H144.214L142.092 70.0284H144.082ZM148.444 74V65.2727H154.324V66.794H150.289V68.8736H154.022V70.3949H150.289V72.4787H154.341V74H148.444ZM160.969 65.2727H163.244L165.648 71.1364H165.75L168.153 65.2727H170.429V74H168.639V68.3196H168.567L166.308 73.9574H165.089L162.831 68.2983H162.758V74H160.969V65.2727ZM173.149 74V65.2727H179.03V66.794H174.994V68.8736H178.727V70.3949H174.994V72.4787H179.047V74H173.149ZM185.674 74V65.2727H189.117C189.779 65.2727 190.343 65.3991 190.809 65.652C191.275 65.902 191.63 66.25 191.874 66.696C192.122 67.1392 192.245 67.6506 192.245 68.2301C192.245 68.8097 192.12 69.321 191.87 69.7642C191.62 70.2074 191.258 70.5526 190.784 70.7997C190.312 71.0469 189.741 71.1705 189.07 71.1705H186.876V69.6918H188.772C189.127 69.6918 189.42 69.6307 189.65 69.5085C189.883 69.3835 190.056 69.2116 190.17 68.9929C190.286 68.7713 190.345 68.517 190.345 68.2301C190.345 67.9403 190.286 67.6875 190.17 67.4716C190.056 67.2528 189.883 67.0838 189.65 66.9645C189.417 66.8423 189.122 66.7812 188.764 66.7812H187.519V74H185.674ZM194.644 74V65.2727H198.087C198.746 65.2727 199.308 65.3906 199.774 65.6264C200.243 65.8594 200.6 66.1903 200.844 66.6193C201.091 67.0455 201.215 67.5469 201.215 68.1236C201.215 68.7031 201.09 69.2017 200.84 69.6193C200.59 70.0341 200.227 70.3523 199.753 70.5739C199.281 70.7955 198.71 70.9062 198.04 70.9062H195.735V69.4233H197.742C198.094 69.4233 198.387 69.375 198.62 69.2784C198.852 69.1818 199.026 69.0369 199.139 68.8438C199.256 68.6506 199.314 68.4105 199.314 68.1236C199.314 67.8338 199.256 67.5895 199.139 67.3906C199.026 67.1918 198.851 67.0412 198.615 66.9389C198.382 66.8338 198.088 66.7812 197.733 66.7812H196.489V74H194.644ZM199.357 70.0284L201.526 74H199.489L197.367 70.0284H199.357ZM211.739 69.6364C211.739 70.5881 211.558 71.3977 211.197 72.0653C210.839 72.733 210.351 73.2429 209.731 73.5952C209.115 73.9446 208.422 74.1193 207.652 74.1193C206.876 74.1193 206.18 73.9432 205.564 73.5909C204.947 73.2386 204.46 72.7287 204.102 72.0611C203.744 71.3935 203.565 70.5852 203.565 69.6364C203.565 68.6847 203.744 67.875 204.102 67.2074C204.46 66.5398 204.947 66.0312 205.564 65.6818C206.18 65.3295 206.876 65.1534 207.652 65.1534C208.422 65.1534 209.115 65.3295 209.731 65.6818C210.351 66.0312 210.839 66.5398 211.197 67.2074C211.558 67.875 211.739 68.6847 211.739 69.6364ZM209.868 69.6364C209.868 69.0199 209.776 68.5 209.591 68.0767C209.409 67.6534 209.152 67.3324 208.82 67.1136C208.487 66.8949 208.098 66.7855 207.652 66.7855C207.206 66.7855 206.817 66.8949 206.484 67.1136C206.152 67.3324 205.893 67.6534 205.709 68.0767C205.527 68.5 205.436 69.0199 205.436 69.6364C205.436 70.2528 205.527 70.7727 205.709 71.196C205.893 71.6193 206.152 71.9403 206.484 72.1591C206.817 72.3778 207.206 72.4872 207.652 72.4872C208.098 72.4872 208.487 72.3778 208.82 72.1591C209.152 71.9403 209.409 71.6193 209.591 71.196C209.776 70.7727 209.868 70.2528 209.868 69.6364ZM217.8 65.2727H219.624V71.358C219.624 71.9205 219.497 72.4091 219.244 72.8239C218.994 73.2386 218.646 73.5582 218.2 73.7827C217.754 74.0071 217.236 74.1193 216.645 74.1193C216.119 74.1193 215.642 74.027 215.213 73.8423C214.787 73.6548 214.449 73.3707 214.199 72.9901C213.949 72.6065 213.825 72.125 213.828 71.5455H215.665C215.67 71.7756 215.717 71.973 215.805 72.1378C215.896 72.2997 216.02 72.4247 216.176 72.5128C216.335 72.598 216.523 72.6406 216.739 72.6406C216.966 72.6406 217.158 72.5923 217.314 72.4957C217.473 72.3963 217.594 72.2514 217.676 72.0611C217.759 71.8707 217.8 71.6364 217.8 71.358V65.2727ZM222.349 74V65.2727H228.23V66.794H224.194V68.8736H227.927V70.3949H224.194V72.4787H228.247V74H222.349ZM238.597 68.3281H236.731C236.697 68.0866 236.627 67.8722 236.522 67.6847C236.417 67.4943 236.282 67.3324 236.117 67.1989C235.952 67.0653 235.762 66.9631 235.546 66.892C235.333 66.821 235.101 66.7855 234.851 66.7855C234.4 66.7855 234.006 66.8977 233.671 67.1222C233.336 67.3437 233.076 67.6676 232.891 68.0938C232.706 68.517 232.614 69.0312 232.614 69.6364C232.614 70.2585 232.706 70.7812 232.891 71.2045C233.079 71.6278 233.34 71.9474 233.675 72.1634C234.01 72.3793 234.398 72.4872 234.839 72.4872C235.086 72.4872 235.314 72.4545 235.525 72.3892C235.738 72.3239 235.927 72.2287 236.091 72.1037C236.256 71.9759 236.393 71.821 236.5 71.6392C236.611 71.4574 236.688 71.25 236.731 71.017L238.597 71.0256C238.549 71.4261 238.428 71.8125 238.235 72.1847C238.045 72.554 237.787 72.8849 237.464 73.1776C237.143 73.4673 236.759 73.6974 236.313 73.8679C235.87 74.0355 235.368 74.1193 234.809 74.1193C234.03 74.1193 233.334 73.9432 232.721 73.5909C232.11 73.2386 231.627 72.7287 231.272 72.0611C230.92 71.3935 230.743 70.5852 230.743 69.6364C230.743 68.6847 230.922 67.875 231.28 67.2074C231.638 66.5398 232.124 66.0312 232.738 65.6818C233.351 65.3295 234.042 65.1534 234.809 65.1534C235.314 65.1534 235.783 65.2244 236.215 65.3665C236.65 65.5085 237.035 65.7159 237.37 65.9886C237.705 66.2585 237.978 66.5895 238.188 66.9815C238.401 67.3736 238.537 67.8224 238.597 68.3281ZM240.788 66.794V65.2727H247.955V66.794H245.284V74H243.46V66.794H240.788Z" fill="#1E3B5C"/>
<path d="M89.9176 23.5732V16.7273H122.172V23.5732H110.148V56H101.941V23.5732H89.9176ZM128.294 56V16.7273H136.597V32.9311H153.453V16.7273H161.737V56H153.453V39.777H136.597V56H128.294ZM169.393 16.7273H179.633L190.448 43.1136H190.908L201.724 16.7273H211.964V56H203.91V30.4382H203.584L193.42 55.8082H187.936L177.773 30.3423H177.447V56H169.393V16.7273ZM219.615 56V16.7273H235.109C238.088 16.7273 240.625 17.2962 242.722 18.4339C244.819 19.5589 246.417 21.125 247.516 23.1321C248.628 25.1264 249.184 27.4276 249.184 30.0355C249.184 32.6435 248.622 34.9446 247.497 36.9389C246.372 38.9332 244.742 40.4865 242.607 41.5987C240.485 42.7109 237.915 43.267 234.898 43.267H225.023V36.6129H233.556C235.154 36.6129 236.471 36.3381 237.506 35.7884C238.554 35.2259 239.334 34.4524 239.846 33.468C240.37 32.4709 240.632 31.3267 240.632 30.0355C240.632 28.7315 240.37 27.5937 239.846 26.6222C239.334 25.6378 238.554 24.8771 237.506 24.3402C236.458 23.7905 235.128 23.5156 233.518 23.5156H227.918V56H219.615Z" fill="#1E3B5C"/>
<path d="M59.957 0L74.8213 15.748L74.957 15.8916V65H75V78L74.9961 78.3096C74.8345 84.691 69.691 89.8345 63.3096 89.9961L63 90H12L11.6904 89.9961C5.30907 89.8344 0.1655 84.691 0.00390625 78.3096L0 78V12C0 5.47617 5.2062 0.168233 11.6904 0.00390625L12 0H59.957ZM12 4C7.58183 4.00013 4 7.5818 4 12V78C4 82.4182 7.58184 85.9999 12 86H63C67.4183 86 71 82.4183 71 78V16H67.957C63.5388 16 59.957 12.4183 59.957 8V4H12ZM61.957 80H11.957V76H61.957V80ZM61.957 71H11.957V67H61.957V71ZM65 56.4004C64.9998 58.3874 63.1745 60 60.9258 60H14.0742C11.8234 60 10.0002 58.3874 10 56.4004V34.7998C10 34.7998 20.6352 39.6331 30.3701 41.6113V43.7998C30.3701 44.7952 31.2808 45.5995 32.4072 45.5996H42.5928C43.7171 45.5995 44.6299 44.7952 44.6299 43.7998V41.6113C54.3628 39.6331 65 34.7998 65 34.7998V56.4004ZM40.5557 38.4004C41.6801 38.4004 42.5928 39.2048 42.5928 40.2002V42C42.5928 42.9954 41.6801 43.7998 40.5557 43.7998H34.4443C33.3179 43.7998 32.4072 42.9954 32.4072 42V40.2002C32.4072 39.2048 33.3179 38.4004 34.4443 38.4004H40.5557ZM44.6299 15C46.8785 15.0001 48.7039 16.6127 48.7041 18.5996V22.2002H60.9258C63.1746 22.2002 64.9999 23.8127 65 25.7998V33C65 33 54.3628 37.9751 44.6299 40.0127V38.4004C44.6299 37.405 43.7171 36.5997 42.5928 36.5996H32.4072C31.2808 36.5997 30.3701 37.405 30.3701 38.4004V40.0127C20.6352 37.9751 10 33 10 33V25.7998C10.0001 23.8127 11.8234 22.2002 14.0742 22.2002H26.2959V18.5996C26.2961 16.6127 28.1215 15.0001 30.3701 15H44.6299ZM32.4072 18.5996C31.2808 18.5997 30.3701 19.405 30.3701 20.4004V22.2002H44.6299C44.6299 22.2002 44.6299 21.3938 44.6299 20.4004C44.6299 19.405 43.7171 18.5997 42.5928 18.5996H32.4072Z" fill="#1E3B5C"/>
<path d="M81 72C81 83.598 71.598 93 60 93C48.402 93 39 83.598 39 72C39 60.402 48.402 51 60 51C71.598 51 81 60.402 81 72Z" fill="white"/>
<path d="M60 54C50.0595 54 42 62.0595 42 72C42 81.9405 50.0595 90 60 90C69.9405 90 78 81.9405 78 72C78 62.0595 69.9405 54 60 54ZM70.0605 68.5605L58.7205 79.9005C58.4385 80.1825 58.0575 80.34 57.66 80.34C57.2625 80.34 56.88 80.1825 56.5995 79.9005L51.42 74.721C50.8335 74.1345 50.8335 73.1865 51.42 72.6C52.0065 72.0135 52.9545 72.0135 53.541 72.6L57.66 76.719L67.9395 66.4395C68.526 65.853 69.474 65.853 70.0605 66.4395C70.647 67.026 70.647 67.974 70.0605 68.5605Z" fill="#1E3B5C"/>
</svg>
