<svg viewBox="0 0 40 40" fill="none" xmlns="http://www.w3.org/2000/svg">
<path d="M20 0C8.955 0 0 8.955 0 20C0 31.045 8.955 40 20 40C31.045 40 40 31.045 40 20C40 8.955 31.045 0 20 0ZM31.1783 16.1783L18.5783 28.7783C18.265 29.0917 17.8417 29.2667 17.4 29.2667C16.9583 29.2667 16.5333 29.0917 16.2217 28.7783L10.4667 23.0233C9.815 22.3717 9.815 21.3183 10.4667 20.6667C11.1183 20.015 12.1717 20.015 12.8233 20.6667L17.4 25.2433L28.8217 13.8217C29.4733 13.17 30.5267 13.17 31.1783 13.8217C31.83 14.4733 31.83 15.5267 31.1783 16.1783Z" fill="currentColor"/>
</svg>
